HIERARCHY
ROOT Hips
{
	OFFSET 0.000000 0.000000 0.000000
	CHANNELS 6 Xposition Yposition Zposition Zrotation Yrotation Xrotation 
	JOINT LHipJoint
	{
		OFFSET 0.000000 0.000000 0.000000
		CHANNELS 3 Zrotation Yrotation Xrotation
		JOINT LeftUpLeg
		{
			OFFSET 1.363060 -1.794630 0.839290
			CHANNELS 3 Zrotation Yrotation Xrotation
			JOINT LeftLeg
			{
				OFFSET 2.448110 -6.726130 0.000000
				CHANNELS 3 Zrotation Yrotation Xrotation
				JOINT LeftFoot
				{
					OFFSET 2.562200 -7.039590 0.000000
					CHANNELS 3 Zrotation Yrotation Xrotation
					JOINT LeftToeBase
					{
						OFFSET 0.157640 -0.433110 2.322550
						CHANNELS 3 Zrotation Yrotation Xrotation
						End Site
						{
							OFFSET 0.000000 0.000000 0.000000
						}
					}
				}
			}
		}
	}
	JOINT RHipJoint
	{
		OFFSET 0.000000 0.000000 0.000000
		CHANNELS 3 Zrotation Yrotation Xrotation
		JOINT RightUpLeg
		{
			OFFSET -1.305520 -1.794630 0.839290
			CHANNELS 3 Zrotation Yrotation Xrotation
			JOINT RightLeg
			{
				OFFSET -2.542530 -6.985550 0.000000
				CHANNELS 3 Zrotation Yrotation Xrotation
				JOINT RightFoot
				{
					OFFSET -2.568260 -7.056230 0.000000
					CHANNELS 3 Zrotation Yrotation Xrotation
					JOINT RightToeBase
					{
						OFFSET -0.164730 -0.452590 2.363150
						CHANNELS 3 Zrotation Yrotation Xrotation
						End Site
						{
							OFFSET 0.000000 0.000000 0.000000
						}
					}
				}
			}
		}
	}
}
MOTION
Frames: 13
Frame Time: 0.008333
26.176811 15.445147 3.122216 -134.751996 -79.314242 159.414772 -8.433945 -2.532535 -1.202048 -8.822771 3.490876 -71.696117 -0.637801 4.309543 57.166356 2.305307 9.099005 -13.153800 -0.523100 0.000000 -13.395400 11.033291 -1.809235 -5.372091 9.449828 -11.036968 -18.076254 2.078891 -3.640618 52.196075 0.702226 10.743900 -15.405932 -1.416500 0.000000 -73.747000
26.038475 15.435993 3.141913 -133.795098 -79.320834 158.465168 -8.447810 -2.518946 -1.222578 -8.778631 3.431341 -71.522674 -0.584844 4.348262 58.050353 2.363273 9.284172 -14.001359 -0.693900 0.000000 -13.650600 11.106085 -1.857325 -5.340094 9.364548 -11.072037 -18.106785 1.904859 -3.700299 52.852876 0.704645 10.391862 -14.147233 -1.193800 -0.000000 -74.848800
25.902599 15.428683 3.160710 -132.900949 -79.339189 157.599991 -8.460510 -2.503453 -1.239809 -8.734809 3.345047 -71.346152 -0.531200 4.381813 58.877944 2.422425 9.489016 -14.766528 -0.855700 -0.000000 -13.968400 11.179057 -1.893962 -5.308596 9.291337 -11.079495 -18.211982 1.719693 -3.761442 53.564692 0.694853 9.967285 -12.840531 -0.963000 0.000000 -75.845000
25.769045 15.423090 3.178607 -132.050834 -79.365574 156.804998 -8.472149 -2.486787 -1.255083 -8.692487 3.243028 -71.174084 -0.479279 4.411558 59.648318 2.478817 9.690511 -15.460507 -1.008600 -0.000000 -14.298800 11.251405 -1.919773 -5.274827 9.237197 -11.047598 -18.392584 1.523918 -3.823153 54.328913 0.672955 9.478163 -11.478168 -0.729500 -0.000000 -76.727099
25.638146 15.419233 3.195484 -131.260650 -79.398537 156.092116 -8.482520 -2.467880 -1.270087 -8.659745 3.135499 -71.007441 -0.432363 4.438556 60.356130 2.529476 9.869277 -16.099248 -1.153400 -0.000001 -14.604600 11.323321 -1.934058 -5.237569 9.200310 -10.975599 -18.650640 1.316223 -3.884892 55.145634 0.639525 8.935800 -10.029041 -0.496000 -0.000000 -77.519600
25.510099 15.416985 3.211342 -130.531676 -79.436225 155.463111 -8.491733 -2.445874 -1.286060 -8.643047 3.032772 -70.846547 -0.393459 4.463720 60.997046 2.572365 10.009534 -16.701184 -1.290800 0.000000 -14.861300 11.394558 -1.936989 -5.195208 9.180516 -10.862733 -18.985044 1.096993 -3.945531 56.011088 0.594770 8.354695 -8.472328 -0.266100 0.000000 -78.214300
25.384763 15.416272 3.226340 -129.836107 -79.475379 154.885904 -8.500253 -2.422168 -1.304919 -8.642438 2.946781 -70.688427 -0.364639 4.487392 61.568601 2.606118 10.099628 -17.283949 -1.421900 0.000000 -15.057500 11.463942 -1.929961 -5.146738 9.183184 -10.707062 -19.388643 0.868601 -4.004049 56.917397 0.538445 7.748342 -6.802009 -0.044600 0.000000 -78.765600
25.262330 15.416970 3.240374 -129.214517 -79.516798 154.397852 -8.508054 -2.393804 -1.327008 -8.669469 2.882809 -70.529208 -0.348056 4.510236 62.067023 2.631301 10.138080 -17.860722 -1.547800 0.000000 -15.192500 11.531538 -1.911391 -5.091651 9.198008 -10.516014 -19.860674 0.633200 -4.058972 57.862793 0.470769 7.135173 -5.018698 0.164300 -0.000000 -79.141400
25.142466 15.418960 3.253693 -128.641994 -79.558193 153.970095 -8.515738 -2.362054 -1.353379 -8.722493 2.847949 -70.364374 -0.343996 4.532188 62.493829 2.648599 10.126139 -18.439969 -1.669000 -0.000000 -15.274800 11.596013 -1.882629 -5.030167 9.227926 -10.292261 -20.392012 0.395510 -4.109424 58.840112 0.391436 6.524173 -3.147793 0.355400 0.000000 -79.261200
25.025142 15.422133 3.266356 -128.139708 -79.600145 153.619597 -8.523538 -2.325640 -1.383872 -8.805960 2.843388 -70.189726 -0.352308 4.553299 62.850619 2.659897 10.072616 -19.023628 -1.785700 -0.000000 -15.318900 11.656707 -1.843140 -4.963127 9.266009 -10.043577 -20.977625 0.160367 -4.154673 59.847225 0.300885 5.922381 -1.234251 0.522800 0.000000 -79.052000
24.910411 15.426327 3.278865 -127.621777 -79.637978 153.255249 -8.532458 -2.290081 -1.419683 -8.902921 2.873198 -70.000810 -0.370380 4.572578 63.146901 2.666211 9.985072 -19.609072 -1.897500 0.000000 -15.343700 11.711417 -1.797233 -4.892951 9.327479 -9.771267 -21.601749 -0.065290 -4.195726 60.876106 0.199523 5.318491 0.646445 0.657201 0.000000 -78.432000
24.798242 15.431534 3.290965 -127.188394 -79.677285 152.974425 -8.542100 -2.249492 -1.458423 -9.028915 2.928733 -69.795631 -0.397610 4.590425 63.383715 2.670650 9.880935 -20.187890 -2.004301 0.000000 -15.364100 11.760928 -1.741412 -4.821037 9.389647 -9.490140 -22.269885 -0.278813 -4.232735 61.935166 0.089573 4.708328 2.422634 0.751200 -0.000000 -77.364100
24.688516 15.437657 3.303146 -126.757271 -79.714436 152.690515 -8.553212 -2.209403 -1.500463 -9.164778 3.008632 -69.572334 -0.430338 4.605713 63.573061 2.674156 9.769846 -20.751241 -2.105600 -0.000000 -15.396800 11.803805 -1.680133 -4.751114 9.467102 -9.204527 -22.970028 -0.475797 -4.268365 63.020284 -0.027357 4.063653 4.003889 0.792900 -0.000001 -75.838001
